<svg width="80" height="80" viewBox="0 0 80 80" fill="none" xmlns="http://www.w3.org/2000/svg">
<path d="M12 0C5.39062 0 0 5.39062 0 12V68C0 74.6094 5.39062 80 12 80H68C74.6094 80 80 74.6094 80 68V12C80 5.39062 74.6094 0 68 0H12ZM12 8H68C70.2031 8 72 9.79688 72 12V68C72 70.2031 70.2031 72 68 72H12C9.79688 72 8 70.2031 8 68V12C8 9.79688 9.79688 8 12 8ZM56 16C51.5781 16 48 19.5781 48 24C48 28.4219 51.5781 32 56 32C60.4219 32 64 28.4219 64 24C64 19.5781 60.4219 16 56 16ZM22 20C18.6875 20 16 22.6875 16 26C16 29.3125 18.6875 32 22 32C25.3125 32 28 29.3125 28 26C28 22.6875 25.3125 20 22 20ZM38 20C34.6875 20 32 22.6875 32 26C32 29.3125 34.6875 32 38 32C41.3125 32 44 29.3125 44 26C44 22.6875 41.3125 20 38 20ZM22 36C11.9063 36.0313 12 46 12 46V56H28.125V60H44.125V64H68V50C68 50 67.9375 35.9688 56 36C50.8906 36.0156 48.1719 38.6094 46.5 41.5C45.1875 38.6719 42.7031 35.9844 38 36C33.9531 36.0156 31.6719 37.9219 30.25 40.25C28.8906 38.0156 26.5 35.9844 22 36Z" fill="#DE9D9B"/>
</svg>
