<svg width="64" height="72" viewBox="0 0 64 72" fill="none" xmlns="http://www.w3.org/2000/svg">
<path d="M33.76 15.6C40.88 15.6 43.52 19 43.76 24H52.6C52.32 17.12 48.12 10.8 39.76 8.76V0H27.76V8.64C25.64 9.12 23.64 9.84 21.84 10.8L27.72 16.68C29.36 16 31.36 15.6 33.76 15.6ZM5.08 4.24L0 9.32L13.76 23.08C13.76 31.4 20 35.92 29.4 38.72L43.44 52.76C42.08 54.68 39.24 56.4 33.76 56.4C25.52 56.4 22.28 52.72 21.84 48H13.04C13.52 56.76 20.08 61.68 27.76 63.32V72H39.76V63.4C43.6 62.68 47.04 61.2 49.56 58.92L58.44 67.8L63.52 62.72L5.08 4.24Z" fill="#DE9D9B"/>
</svg>
